Coordinates
version=1
nRows=10
nColumns=22
inDegrees=yes

Units are S.I. units (second, meters, Newtons, ...)
If the header above contains a line with 'inDegrees', this indicates whether rotational values are in degrees (yes) or radians (no).

endheader
time	pelvis_tilt	pelvis_list	pelvis_rotation	pelvis_tx	pelvis_ty	pelvis_tz	hip_flexion_r	hip_adduction_r	hip_rotation_r	knee_angle_r	ankle_angle_r	subtalar_angle_r	hip_flexion_l	hip_adduction_l	hip_rotation_l	knee_angle_l	ankle_angle_l	subtalar_angle_l	lumbar_extension	lumbar_bending	lumbar_rotation
      2.68000000	     -8.33985962	     -7.44690920	      0.38253345	     -0.17202159	      0.95905650	      0.25011811	     31.58521509	      7.54513382	      2.51646779	    -30.84287832	     12.74404643	      0.86064601	     20.05436543	     -8.29631737	      0.61371609	    -67.69696141	      8.09039740	     -7.45439150	     -0.08745620	      7.39678620	      5.07002972
      2.69000000	     -8.23757985	     -7.73823581	      1.08392890	     -0.16536346	      0.96048798	      0.25077289	     30.84514667	      7.67169088	      2.11629960	    -30.45608524	     13.03812368	      0.67830447	     21.30055319	     -8.71102924	      0.37398043	    -68.69225241	      8.80531263	     -7.88449612	     -0.25723257	      7.63438397	      5.25622318
      2.70000000	     -8.13633407	     -7.94097535	      1.75230071	     -0.15882628	      0.96190314	      0.25121920	     30.11736036	      7.71370748	      1.72645454	    -30.07347688	     13.34562109	      0.45944415	     22.50108774	     -8.94626566	      0.14785908	    -69.41868411	      9.55710088	     -8.28193774	     -0.43148065	      7.79461188	      5.48432441
      2.71000000	     -8.03740707	     -8.07433120	      2.37764627	     -0.15238201	      0.96330015	      0.25150763	     29.39912712	      7.69325138	      1.33684196	    -29.69293104	     13.64655499	      0.23492323	     23.64749501	     -9.04135969	     -0.09095270	    -69.88047460	     10.27787450	     -8.52938856	     -0.60713344	      7.89303049	      5.77784114
      2.72000000	     -7.94950831	     -8.14560399	      2.94846668	     -0.14598056	      0.96466122	      0.25168799	     28.68822118	      7.62845887	      0.98070519	    -29.30507744	     13.95680767	      0.06694419	     24.73282928	     -9.02443698	     -0.37006214	    -70.07823695	     10.95314204	     -8.53833396	     -0.77002983	      7.93286718	      6.11986049
      2.73000000	     -7.85767616	     -8.20954538	      3.49086017	     -0.13966996	      0.96596821	      0.25174560	     27.97226835	      7.56384162	      0.62793339	    -28.90188183	     14.22906674	     -0.13193974	     25.77229884	     -8.95410214	     -0.64183409	    -70.06059746	     11.53766427	     -8.28289472	     -0.94350256	      7.97825821	      6.51491834
      2.74000000	     -7.76897175	     -8.23858206	      3.96498195	     -0.13334726	      0.96722195	      0.25178117	     27.25391867	      7.49197367	      0.31986808	    -28.49443454	     14.50482934	     -0.30367414	     26.73511350	     -8.86191107	     -1.01084967	    -69.81229737	     12.05865441	     -7.76109263	     -1.10861312	      7.99012910	      6.96552085
      2.75000000	     -7.68631148	     -8.26144037	      4.38553389	     -0.12703105	      0.96839255	      0.25180489	     26.54067910	      7.43762759	      0.04973528	    -28.08412444	     14.77313226	     -0.43899179	     27.63951875	     -8.79145395	     -1.46057580	    -69.36440978	     12.52639451	     -7.16900448	     -1.26330899	      7.99679047	      7.46653104
      2.76000000	     -7.60155775	     -8.29392390	      4.76696739	     -0.12070217	      0.96947948	      0.25182822	     25.82321949	      7.41396880	     -0.19298555	    -27.66807671	     15.02833890	     -0.57369728	     28.48345627	     -8.77737313	     -1.98928793	    -68.73944772	     12.96998523	     -6.56932901	     -1.41216085	      8.01296716	      7.99583345
      2.77000000	     -7.51451049	     -8.34048551	      5.12143066	     -0.11438489	      0.97047359	      0.25183029	     25.10494990	      7.42124393	     -0.41231857	    -27.24832048	     15.26567824	     -0.72001420	     29.27831858	     -8.82820122	     -2.58688738	    -67.96295178	     13.40398931	     -6.02273322	     -1.55900420	      8.04531773	      8.54528718
